<?xml version="1.0" encoding="UTF-8"?>
<svg width="1000px" height="1000px" viewBox="0 0 1000 1000" version="1.1" xmlns="http://www.w3.org/2000/svg" xmlns:xlink="http://www.w3.org/1999/xlink">
    <!-- Generator: Sketch 60.1 (88133) - https://sketch.com -->
    <title>Vaeltajat OFF</title>
    <desc>Created with Sketch.</desc>
    <g id="Vaeltajat-OFF" stroke="none" stroke-width="1" fill="none" fill-rule="evenodd">
        <path d="M500,10 C770.619527,10 990,229.380473 990,500 C990,770.619527 770.619527,990 500,990 C229.380473,990 10,770.619527 10,500 C10.0232813,229.390117 229.390117,10.0232813 500,10" id="Shape" fill="#000000"></path>
        <path d="M500,521.969018 L522,544 L522,792 L478,792 L478.001265,544 L500,521.969018 Z M720.617316,302.010101 L819.612265,401.005051 L720.617316,500 L819.612265,598.994949 L720.617316,697.989899 L522.627417,500 L720.617316,302.010101 Z M279.382684,302.010101 L477.372583,500 L279.382684,697.989899 L180.387735,598.994949 L279.382684,500 L180.387735,401.005051 L279.382684,302.010101 Z M720.617,347.265 L567.882,500 L720.617,652.735 L774.357,598.995 L675.362482,500 L774.357,401.005 L720.617,347.265 Z M279.383,347.265 L225.643,401.005 L324.637518,500 L225.643,598.995 L279.383,652.735 L432.118,500 L279.383,347.265 Z M598.994949,180.387735 L697.989899,279.382684 L500,477.372583 L302.010101,279.382684 L401.005051,180.387735 L500,279.382684 L598.994949,180.387735 Z M598.995,225.643 L500,324.637518 L401.005,225.643 L347.265,279.383 L500,432.118 L652.735,279.383 L598.995,225.643 Z" id="Shape" fill="#6E470A" fill-rule="nonzero"></path>
    </g>
</svg>