<?xml version="1.0" encoding="UTF-8"?>
<svg width="420px" height="420px" viewBox="0 0 420 420" version="1.1" xmlns="http://www.w3.org/2000/svg" xmlns:xlink="http://www.w3.org/1999/xlink">
    <!-- Generator: Sketch 61 (89581) - https://sketch.com -->
    <title>Aktiviteetti v2 no color</title>
    <desc>Created with Sketch.</desc>
    <g id="Aktiviteetti-v2-no-color" stroke="none" stroke-width="1" fill="none" fill-rule="evenodd">
        <g id="Group" transform="translate(96.000000, 36.000000)" fill="#FFFFFF">
            <path d="M94.730482,333 C99.5553924,346.818875 102,360.812 102,374.5905 C102,377.279966 101.90671,379.963491 101.720597,382.63863 C89.7296907,381.950466 78.0114475,380.245124 66.6482626,377.613073 C66.6901774,376.604922 66.7098686,375.598027 66.7098686,374.5905 C66.7098686,365.102375 64.9766979,355.330562 61.5634336,345.54175 L61.5634336,345.54175 Z" id="Combined-Shape"></path>
            <polyline id="Fill-1" points="185 25.8459981 159.372577 0 126.5 33.1529448 93.6274234 0 68 25.8459981 100.872577 58.9989429 68 92.1529448 93.6274234 118 126.5 84.8459981 159.372577 118 185 92.1529448 152.127423 58.9989429 185 25.8459981"></polyline>
            <path d="M61.4721846,281.794796 C49.2237393,269.304797 40.6937996,253.817574 36.798981,237 L1,245.079606 C6.40834924,268.418944 18.2468136,289.889079 35.2408411,307.158491 L35.5392987,307.45727 C35.5637276,307.480333 37.9545748,309.827581 41.3395727,314 L70,291.337894 C65.7015732,286.042696 62.4089804,282.715245 61.4721846,281.794796" id="Fill-2"></path>
            <path d="M64,147.31022 L38.5165791,121 C17.8518298,141.125446 4.5341003,166.786424 0,195.206681 L36.118351,201 C39.3946246,180.448091 49.0361995,161.884221 64,147.31022" id="Fill-3"></path>
        </g>
    </g>
</svg>