<?xml version="1.0" encoding="UTF-8"?>
<svg width="1000px" height="1000px" viewBox="0 0 1000 1000" version="1.1" xmlns="http://www.w3.org/2000/svg" xmlns:xlink="http://www.w3.org/1999/xlink">
    <!-- Generator: Sketch 61.2 (89653) - https://sketch.com -->
    <title>Perhepartio ON</title>
    <desc>Created with Sketch.</desc>
    <g id="Perhepartio-ON" stroke="none" stroke-width="1" fill="none" fill-rule="evenodd">
        <circle id="Oval" fill="#DB4033" fill-rule="nonzero" cx="500" cy="500" r="490"></circle>
        <path d="M376.4876,122.398886 L818.088952,309.710513 L818.088952,319.641633 C818.088952,517.86551 756.823764,687.706225 634.408035,828.484314 L634.408035,828.484314 L630.569175,832.899002 L449.929794,853.08811 L445.703748,850.697619 C377.489437,812.111746 324.132079,760.995185 285.850919,697.477333 L285.850919,697.477333 L279.793256,687.426181 L443.175597,524.043841 L514.922398,575.640816 L550.562701,575.641523 L550.203497,573.431193 C525.051489,420.323329 476.185484,284.637835 403.633949,166.269154 L403.633949,166.269154 L401.334975,162.536952 L376.4876,122.398886 Z M450.053836,186.189029 L451.964307,189.622377 C516.33264,305.843364 559.725839,437.139402 582.166531,583.426592 L582.166531,583.426592 L582.923437,588.419463 L585.503277,605.641633 L505.255314,605.641633 L446.359203,563.28554 L317.730116,691.914627 L318.099649,692.491706 C352.000528,744.944984 397.502846,787.851102 454.77182,821.307573 L454.77182,821.307573 L456.291225,822.189859 L615.574098,804.387739 L618.754307,800.652507 C729.375431,669.779216 785.763008,513.453518 788.018469,331.074266 L788.018469,331.074266 L788.032493,329.547858 L450.053836,186.189029 Z M282.075198,279.914294 L485.190184,453.663258 L319.803021,617.901899 L180.343338,497.875122 L182.493964,488.965386 C196.701378,430.1061 229.76084,383.815354 281.140983,350.711192 L281.140983,350.711192 L282.075183,350.113053 L282.075198,279.914294 Z M312.075603,345.055119 L312.075198,367.014845 L304.744587,371.376094 C258.477289,398.902208 228.466226,437.048708 214.196636,486.414327 L214.196636,486.414327 L213.964537,487.230251 L318.346933,577.06746 L440.959956,455.305794 L312.075603,345.055119 Z M306.5,394 C331.628956,394 352,414.371044 352,439.5 C352,464.628956 331.628956,485 306.5,485 C281.371044,485 261,464.628956 261,439.5 C261,414.371044 281.371044,394 306.5,394 Z M307.784991,412.029491 L308.055522,412.190065 C314.611943,416.122029 319,423.298571 319,431.5 C319,443.926407 308.926407,454 296.5,454 C289.964884,454 284.080502,451.21388 279.969864,446.764651 C283.15592,458.427393 293.82684,467 306.5,467 C321.687831,467 334,454.687831 334,439.5 C334,424.742884 322.376255,412.700639 307.784991,412.029491 Z" id="Combined-Shape" fill="#FFFFFF" fill-rule="nonzero"></path>
    </g>
</svg>