<?xml version="1.0" encoding="UTF-8"?>
<svg width="1000px" height="1000px" viewBox="0 0 1000 1000" version="1.1" xmlns="http://www.w3.org/2000/svg" xmlns:xlink="http://www.w3.org/1999/xlink">
    <!-- Generator: Sketch 60.1 (88133) - https://sketch.com -->
    <title>Samoajat ON</title>
    <desc>Created with Sketch.</desc>
    <g id="Samoajat-ON" stroke="none" stroke-width="1" fill="none" fill-rule="evenodd">
        <circle id="Oval" fill="#33652E" fill-rule="nonzero" cx="500" cy="500" r="490"></circle>
        <path d="M485.62,598.109 L438.455487,724.551506 L499.601806,778.054536 L560.748125,724.551506 L513.583,598.109 L555.939,598.109 L646.879943,649.409273 L679.601806,616.68741 L702.229223,639.314827 L652.323669,689.220381 L562.908067,638.780811 L598.455487,734.078148 L499.601806,820.575119 L400.748125,734.078148 L436.295544,638.780811 L346.879943,689.220381 L296.974389,639.314827 L319.601806,616.68741 L352.323669,649.409273 L443.264,598.109 L485.62,598.109 Z M599.601806,524.109135 L599.601806,568.109135 L400.601806,568.109135 L400.601806,524.109135 L599.601806,524.109135 Z M499.601806,145 L607.139409,300.332093 L563.91575,444.410955 L670.901741,350.700597 L792.201125,484.736417 L768.474524,506.208454 L668.30187,395.517672 L555.742,494.109 L515.597,494.109 L572.064203,305.886176 L499.601806,201.21827 L427.139409,305.886176 L483.606,494.109 L443.46,494.109 L330.875042,395.494285 L230.678082,505.710941 L207,484.185411 L328.32857,350.723984 L435.287861,444.410955 L392.064203,300.332093 L499.601806,145 Z" id="Combined-Shape" fill="#FFFFFF" fill-rule="nonzero"></path>
    </g>
</svg>