<?xml version="1.0" encoding="UTF-8"?>
<svg width="1000px" height="1000px" viewBox="0 0 1000 1000" version="1.1" xmlns="http://www.w3.org/2000/svg" xmlns:xlink="http://www.w3.org/1999/xlink">
    <!-- Generator: Sketch 60.1 (88133) - https://sketch.com -->
    <title>Seikkailijat ON</title>
    <desc>Created with Sketch.</desc>
    <g id="Seikkailijat-ON" stroke="none" stroke-width="1" fill="none" fill-rule="evenodd">
        <path d="M846.481767,846.481767 C655.125102,1037.83941 344.874898,1037.83941 153.518233,846.481767 C-37.8394111,655.125102 -37.8394111,344.874898 153.518233,153.518233 C344.874898,-37.8394111 655.125102,-37.8394111 846.481767,153.518233 C1037.83941,344.874898 1037.83941,655.125102 846.481767,846.481767 Z" id="Fill-10" stroke="#D4791E" stroke-width="3" fill="#D4791E"></path>
        <path d="M641.4212,641.4212 L846.4823,846.4823 C657.038969,1035.92566 351.067727,1037.82009 159.293837,852.165601 L153.5177,846.4823 L153.5177,846.4823 L358.875281,641.717075 C437.003731,719.526275 563.415149,719.42765 641.4212,641.4212 L641.4212,641.4212 Z" id="Combined-Shape" fill="#D4791E"></path>
        <path d="M153.5177,153.5177 L358.5788,358.5788 C280.4736,436.6836 280.4736,563.3164 358.5788,641.4212 C358.677839,641.520239 358.776956,641.619153 358.87615,641.717941 L153.5177,846.4823 C-37.83923,655.1254 -37.83923,344.8746 153.5177,153.5177 Z" id="Combined-Shape" fill="#D4791E"></path>
        <path d="M846.4823,153.5177 C1037.839,344.8746 1037.839,655.1254 846.4823,846.4823 L641.4212,641.4212 C719.5264,563.3164 719.5264,436.6836 641.4212,358.5788 L641.7152,358.8767 L846.4823,153.5177 Z" id="Combined-Shape" fill="#D4791E"></path>
        <path d="M846.4823,153.5177 L641.7147,358.876175 L641.4212,358.5788 C564.097448,281.254652 439.211403,280.481411 360.936405,356.259076 L358.5788,358.5788 L358.5788,358.5788 L153.5177,153.5177 C344.8746,-37.839 655.1254,-37.839 846.4823,153.5177 Z" id="Combined-Shape" fill="#D4791E"></path>
        <path d="M241.943402,594.75 L194.578343,547.186629 L147.213285,594.75 L163.209681,610.813371 L194.578343,579.313371 L225.947006,610.813371 L241.943402,594.75 Z M225.947006,642 L194.578343,610.5 L163.209681,642 L116.156687,594.75 L194.578343,516 L273,594.75 L225.947006,642 Z M147.213285,407.25 L194.578343,454.813371 L241.943402,407.25 L225.947006,391.186629 L194.578343,422.686629 L163.209681,391.186629 L147.213285,407.25 Z M163.209681,360 L194.578343,391.5 L225.947006,360 L273,407.25 L194.578343,486 L116.156687,407.25 L163.209681,360 Z M148.989429,501.122047 L101.276347,453.28417 L85.0808296,469.522047 L116.598394,501.122047 L85.0808296,532.722047 L101.276347,548.959925 L148.989429,501.122047 Z M101.276347,422.122047 L180.070258,501.122047 L101.276347,580.122047 L54,532.722047 L85.5175645,501.122047 L54,469.522047 L101.276347,422.122047 Z M270.200897,485.122047 L270.200897,517.122047 L224.094793,517.122047 L208.085871,501.122047 L224.094793,485.122047 L270.200897,485.122047 Z" id="Shape" fill="#FFFFFF" fill-rule="nonzero"></path>
        <path d="M760.056598,594.75 L807.421657,547.186629 L854.786715,594.75 L838.790319,610.813371 L807.421657,579.313371 L776.052994,610.813371 L760.056598,594.75 Z M776.052994,642 L807.421657,610.5 L838.790319,642 L885.843313,594.75 L807.421657,516 L729,594.75 L776.052994,642 Z M854.786715,407.25 L807.421657,454.813371 L760.056598,407.25 L776.052994,391.186629 L807.421657,422.686629 L838.790319,391.186629 L854.786715,407.25 Z M838.790319,360 L807.421657,391.5 L776.052994,360 L729,407.25 L807.421657,486 L885.843313,407.25 L838.790319,360 Z M853.010571,501.122047 L900.723653,453.28417 L916.91917,469.522047 L885.401606,501.122047 L916.91917,532.722047 L900.723653,548.959925 L853.010571,501.122047 Z M900.723653,422.122047 L821.929742,501.122047 L900.723653,580.122047 L948,532.722047 L916.482435,501.122047 L948,469.522047 L900.723653,422.122047 Z M731.799103,485.122047 L731.799103,517.122047 L777.905207,517.122047 L793.914129,501.122047 L777.905207,485.122047 L731.799103,485.122047 Z" id="Shape" fill="#FFFFFF" fill-rule="nonzero"></path>
        <path d="M543.725464,238 L543.725464,270 L454,270 L454,238 L543.725464,238 Z M500.001003,50 L552.616977,126.865648 L540.495174,181.989064 L577.534905,145.219438 L638,212.793629 L621.479036,227.420353 L576.583077,177.245817 L536.535,217 L510.155,217 L528.97584,131.417996 L500.001003,89.0892234 L471.026167,131.417996 L489.846,217 L463.466,217 L423.40025,177.227274 L378.487795,227.193129 L362,212.52942 L422.485781,145.237981 L459.506832,181.989064 L447.38503,126.865648 L500.001003,50 Z" id="Shape" fill="#FFFFFF" fill-rule="nonzero"></path>
        <path d="M543.725464,917.999303 L543.725464,949.999303 L454,949.999303 L454,917.999303 L543.725464,917.999303 Z M500.001003,729.999303 L552.616977,806.86495 L540.495174,861.988366 L577.534905,825.21874 L638,892.792932 L621.479036,907.419656 L576.583077,857.24512 L536.535,896.999303 L510.155,896.999303 L528.97584,811.417299 L500.001003,769.088526 L471.026167,811.417299 L489.846,896.999303 L463.466,896.999303 L423.40025,857.226577 L378.487795,907.192432 L362,892.528722 L422.485781,825.237283 L459.506832,861.988366 L447.38503,806.86495 L500.001003,729.999303 Z" id="Shape" fill="#FFFFFF" fill-rule="nonzero" transform="translate(500.000000, 839.999303) rotate(-180.000000) translate(-500.000000, -839.999303) "></path>
        <polygon id="Path" fill="#FFFFFF" fill-rule="nonzero" points="516 364 516 461.372 560 417.372583 582.627417 440 538.626 484 636 484 636 516 538.627 516 582.627417 560 560 582.627417 516 538.627 516 636 484 636 484 538.626 440 582.627417 417.372583 560 461.372 516 364 516 364 484 461.373 484 417.372583 440 440 417.372583 484 461.373 484 364"></polygon>
    </g>
</svg>