<?xml version="1.0" encoding="UTF-8"?>
<svg width="1000px" height="1001px" viewBox="0 0 1000 1001" version="1.1" xmlns="http://www.w3.org/2000/svg" xmlns:xlink="http://www.w3.org/1999/xlink">
    <!-- Generator: Sketch 60.1 (88133) - https://sketch.com -->
    <title>Tarpojat WS off</title>
    <desc>Created with Sketch.</desc>
    <g id="Tarpojat-WS-off" stroke="none" stroke-width="1" fill="none" fill-rule="evenodd" transform="translate(0.000000, 1.000000)">
        <path d="M846.481855,153.518145 C1037.83938,344.874984 1037.83938,655.125016 846.481855,846.481855 C655.125016,1037.83938 344.874984,1037.83938 153.518145,846.481855 C-37.8393816,655.125016 -37.8393816,344.874984 153.518145,153.518145 C344.874984,-37.8393816 655.125016,-37.8393816 846.481855,153.518145" id="Fill-10" fill="#5E0F75"></path>
        <path d="M153.5177,153.5177 L348.6793,348.6793 C265.1068,432.2515 265.1068,567.7485 348.6793,651.3207 C348.773076,651.414476 348.866918,651.508148 348.960824,651.601714 L348.961715,651.602601 C432.556477,734.893094 567.842573,734.799127 651.3207,651.3207 L846.4823,846.4823 C657.038969,1035.92566 351.067727,1037.82009 159.293837,852.165601 L153.5177,846.4823 C-37.83923,655.1254 -37.83923,344.8746 153.5177,153.5177 Z" id="Combined-Shape" fill="#000000"></path>
        <polygon id="Tent" fill="#5E0F75" points="540.685289 770.182494 518.996291 753 500.431674 776.434458 481.867057 753 460.178059 770.182494 482.781002 798.714879 387 919.620578 422.300543 919.620578 500.431674 820.9953 578.562805 919.620578 613.862547 919.620578 518.081545 798.714879"></polygon>
        <path d="M118,460 L194,460 L194,420 L118,420 L118,460 Z M135.150364,582.473605 L155.734102,592.393508 L176.900282,581.621889 L156.020829,485.480312 L135.150364,582.473605 Z M177.777828,482 L202,593.533468 L156,616.943195 L110,594.774454 L134.266165,482 L96,482 L96,398 L216,398 L216,482 L177.777828,482 Z" id="Brush" fill="#5E0F75" fill-rule="nonzero"></path>
        <path d="M852.20413,388 L852.204,407.1 L901.208153,456.104076 L856.708,500.604 L901.208153,545.104076 L852,594.312 L852,613 L830,613 L830,594.104 L781,545.104076 L825.5,500.604 L781,456.104076 L830.204,406.9 L830.20413,388 L852.20413,388 Z M841.152,516.16 L841.104076,516.208153 L841.056,516.16 L812.112698,545.104076 L841.104076,574.095454 L870.095454,545.104076 L841.152,516.16 Z M841.104076,427.112698 L812.112698,456.104076 L841.056,485.048 L841.104076,485 L841.152,485.048 L870.095454,456.104076 L841.104076,427.112698 Z" id="Shape" fill="#FFFFFF" fill-rule="nonzero"></path>
        <path d="M428,442 L427.999218,458 L573.999218,458 L574,442 L673.256782,442 L649.953859,486 L673.256782,530 L601.999218,530 L602,556 L400,556 L399.999218,530 L328.743218,530 L352.046141,486 L328.743218,442 L428,442 Z M574,486 L428,486 L428,528 L574,528 L574,486 Z M400,470 L375.256782,470 L383.730572,486 L375.256782,502 L400,502 L400,470 Z M626.743218,470 L602,470 L602,502 L626.743218,502 L618.269428,486 L626.743218,470 Z" id="Shape" fill="#FFFFFF" fill-rule="nonzero"></path>
        <path d="M625,145 L625,227 L618,227 L618,247 L597,247 L597,227 L579,227 L579,247 L558,247 L558,227 L551,227 L551,167 L537,167 L537,227 L530,227 L530,247 L509,247 L509,227 L491,227 L491,247 L470,247 L470,227 L463,227 L463,167 L449,167 L449,227 L442,227 L442,247 L421,247 L421,227 L403,227 L403,247 L382,247 L382,227 L375,227 L375,145 L625,145 Z M499,66 C519.434536,66 536,82.5654643 536,103 C536,123.434536 519.434536,140 499,140 C478.565464,140 462,123.434536 462,103 C462,82.5654643 478.565464,66 499,66 Z M412,66 C432.434536,66 449,82.5654643 449,103 C449,123.434536 432.434536,140 412,140 C391.565464,140 375,123.434536 375,103 C375,82.5654643 391.565464,66 412,66 Z M589,66 C609.434536,66 626,82.5654643 626,103 C626,123.434536 609.434536,140 589,140 C568.565464,140 552,123.434536 552,103 C552,82.5654643 568.565464,66 589,66 Z M499,88 C490.715729,88 484,94.7157288 484,103 C484,111.284271 490.715729,118 499,118 C507.284271,118 514,111.284271 514,103 C514,94.7157288 507.284271,88 499,88 Z M412,88 C403.715729,88 397,94.7157288 397,103 C397,111.284271 403.715729,118 412,118 C420.284271,118 427,111.284271 427,103 C427,94.7157288 420.284271,88 412,88 Z M589,88 C580.715729,88 574,94.7157288 574,103 C574,111.284271 580.715729,118 589,118 C597.284271,118 604,111.284271 604,103 C604,94.7157288 597.284271,88 589,88 Z M515,189 L500,199 L485,189 L485,205 L515,205 L515,189 Z M427,167 L397,167 L397,205 L427,205 L427,167 Z M603,167 L573,167 L573,205 L603,205 L603,167 Z M515,167 L485,167 L500,177 L515,167 Z" id="Shape" fill="#FFFFFF" fill-rule="nonzero"></path>
    </g>
</svg>