<?xml version="1.0" encoding="UTF-8"?>
<svg width="420px" height="420px" viewBox="0 0 420 420" version="1.1" xmlns="http://www.w3.org/2000/svg" xmlns:xlink="http://www.w3.org/1999/xlink">
    <!-- Generator: Sketch 60.1 (88133) - https://sketch.com -->
    <title>Tervetuloa tarpojaksi</title>
    <desc>Created with Sketch.</desc>
    <g id="Tervetuloa-tarpojaksi" stroke="none" stroke-width="1" fill="none" fill-rule="evenodd">
        <path d="M210,419 C94.5722857,419 1,325.427714 1,210 C1,94.5722857 94.5722857,1 210,1 C325.427714,1 419,94.5722857 419,210 C419,325.427714 325.427714,419 210,419 Z" id="Fill-17" fill="#5E0F75"></path>
        <path d="M143.403509,168 L143.402796,182.596491 L276.595778,182.596491 L276.596491,168 L367.146538,168 L345.887731,208.140351 L367.146538,248.280702 L302.139638,248.280702 L302.140351,272 L117.859649,272 L117.858936,248.280702 L52.8534624,248.280702 L74.1122686,208.140351 L52.8534624,168 L143.403509,168 Z M276.596491,208.140351 L143.403509,208.140351 L143.403509,246.45614 L276.596491,246.45614 L276.596491,208.140351 Z M117.859649,193.54386 L95.2868885,193.54386 L103.017363,208.140351 L95.2868885,222.736842 L117.859649,222.736842 L117.859649,193.54386 Z M324.713111,193.54386 L302.140351,193.54386 L302.140351,222.736842 L324.713111,222.736842 L316.982637,208.140351 L324.713111,193.54386 Z" id="Shape" fill="#FFFFFF" fill-rule="nonzero"></path>
    </g>
</svg>