<?xml version="1.0" encoding="UTF-8"?>
<svg width="420px" height="420px" viewBox="0 0 420 420" version="1.1" xmlns="http://www.w3.org/2000/svg" xmlns:xlink="http://www.w3.org/1999/xlink">
    <!-- Generator: Sketch 60.1 (88133) - https://sketch.com -->
    <title>Yhteiskunta-tarppo</title>
    <desc>Created with Sketch.</desc>
    <g id="Yhteiskunta-tarppo" stroke="none" stroke-width="1" fill="none" fill-rule="evenodd">
        <path d="M210,419 C94.5722857,419 1,325.427714 1,210 C1,94.5722857 94.5722857,1 210,1 C325.427714,1 419,94.5722857 419,210 C419,325.427714 325.427714,419 210,419 Z" id="Fill-17" fill="#5E0F75"></path>
        <path d="M334.5,192 L334.5,274 L327.5,274 L327.5,294 L306.5,294 L306.5,274 L288.5,274 L288.5,294 L267.5,294 L267.5,274 L260.5,274 L260.5,214 L246.5,214 L246.5,274 L239.5,274 L239.5,294 L218.5,294 L218.5,274 L200.5,274 L200.5,294 L179.5,294 L179.5,274 L172.5,274 L172.5,214 L158.5,214 L158.5,274 L151.5,274 L151.5,294 L130.5,294 L130.5,274 L112.5,274 L112.5,294 L91.5,294 L91.5,274 L84.5,274 L84.5,192 L334.5,192 Z M208.5,113 C228.934536,113 245.5,129.565464 245.5,150 C245.5,170.434536 228.934536,187 208.5,187 C188.065464,187 171.5,170.434536 171.5,150 C171.5,129.565464 188.065464,113 208.5,113 Z M121.5,113 C141.934536,113 158.5,129.565464 158.5,150 C158.5,170.434536 141.934536,187 121.5,187 C101.065464,187 84.5,170.434536 84.5,150 C84.5,129.565464 101.065464,113 121.5,113 Z M298.5,113 C318.934536,113 335.5,129.565464 335.5,150 C335.5,170.434536 318.934536,187 298.5,187 C278.065464,187 261.5,170.434536 261.5,150 C261.5,129.565464 278.065464,113 298.5,113 Z M208.5,135 C200.215729,135 193.5,141.715729 193.5,150 C193.5,158.284271 200.215729,165 208.5,165 C216.784271,165 223.5,158.284271 223.5,150 C223.5,141.715729 216.784271,135 208.5,135 Z M121.5,135 C113.215729,135 106.5,141.715729 106.5,150 C106.5,158.284271 113.215729,165 121.5,165 C129.784271,165 136.5,158.284271 136.5,150 C136.5,141.715729 129.784271,135 121.5,135 Z M298.5,135 C290.215729,135 283.5,141.715729 283.5,150 C283.5,158.284271 290.215729,165 298.5,165 C306.784271,165 313.5,158.284271 313.5,150 C313.5,141.715729 306.784271,135 298.5,135 Z M224.5,236 L209.5,246 L194.5,236 L194.5,252 L224.5,252 L224.5,236 Z M136.5,214 L106.5,214 L106.5,252 L136.5,252 L136.5,214 Z M312.5,214 L282.5,214 L282.5,252 L312.5,252 L312.5,214 Z M224.5,214 L194.5,214 L209.5,224 L224.5,214 Z" id="Shape" fill="#FFFFFF" fill-rule="nonzero"></path>
    </g>
</svg>