<?xml version="1.0" encoding="UTF-8"?>
<svg width="420px" height="420px" viewBox="0 0 420 420" version="1.1" xmlns="http://www.w3.org/2000/svg" xmlns:xlink="http://www.w3.org/1999/xlink">
    <!-- Generator: Sketch 60.1 (88133) - https://sketch.com -->
    <title>Pohjoinen</title>
    <desc>Created with Sketch.</desc>
    <g id="Pohjoinen" stroke="none" stroke-width="1" fill="none" fill-rule="evenodd">
        <path d="M210,419 C94.5722857,419 1,325.427714 1,210 C1,94.5722857 94.5722857,1 210,1 C325.427714,1 419,94.5722857 419,210 C419,325.427714 325.427714,419 210,419 Z" id="Fill-17" fill="#D4791E"></path>
        <g id="Group-5" transform="translate(71.000000, 60.000000)" fill="#FFFFFF" fill-rule="nonzero">
            <path d="M181.725464,188 L181.725464,220 L92,220 L92,188 L181.725464,188 Z M138.001003,5.68434189e-14 L190.616977,76.8656478 L178.495174,131.989064 L215.534905,95.2194378 L276,162.793629 L259.479036,177.420353 L214.583077,127.245817 L174.535,167 L148.155,167 L166.97584,81.417996 L138.001003,39.0892234 L109.026167,81.417996 L127.846,167 L101.466,167 L61.4002503,127.227274 L16.4877948,177.193129 L0,162.52942 L60.485781,95.2379808 L97.5068325,131.989064 L85.3850295,76.8656478 L138.001003,5.68434189e-14 Z" id="Shape"></path>
        </g>
    </g>
</svg>