<?xml version="1.0" encoding="UTF-8"?>
<svg width="420px" height="420px" viewBox="0 0 420 420" version="1.1" xmlns="http://www.w3.org/2000/svg" xmlns:xlink="http://www.w3.org/1999/xlink">
    <!-- Generator: Sketch 60.1 (88133) - https://sketch.com -->
    <title>Tervetuloa</title>
    <desc>Created with Sketch.</desc>
    <g id="Tervetuloa" stroke="none" stroke-width="1" fill="none" fill-rule="evenodd">
        <path d="M210,419 C94.5722857,419 1,325.427714 1,210 C1,94.5722857 94.5722857,1 210,1 C325.427714,1 419,94.5722857 419,210 C419,325.427714 325.427714,419 210,419 Z" id="Fill-17" fill="#D4791E"></path>
        <polygon id="Path" fill="#FFFFFF" fill-rule="nonzero" points="226 74 226 171.372 270 127.372583 292.627417 150 248.626 194 346 194 346 226 248.627 226 292.627417 270 270 292.627417 226 248.627 226 346 194 346 194 248.626 150 292.627417 127.372583 270 171.372 226 74 226 74 194 171.373 194 127.372583 150 150 127.372583 194 171.373 194 74"></polygon>
    </g>
</svg>