<?xml version="1.0" encoding="UTF-8"?>
<svg width="420px" height="420px" viewBox="0 0 420 420" version="1.1" xmlns="http://www.w3.org/2000/svg" xmlns:xlink="http://www.w3.org/1999/xlink">
    <!-- Generator: Sketch 60.1 (88133) - https://sketch.com -->
    <title>Lansi</title>
    <desc>Created with Sketch.</desc>
    <g id="Lansi" stroke="none" stroke-width="1" fill="none" fill-rule="evenodd">
        <path d="M210,419 C94.5722857,419 1,325.427714 1,210 C1,94.5722857 94.5722857,1 210,1 C325.427714,1 419,94.5722857 419,210 C419,325.427714 325.427714,419 210,419 Z" id="Fill-17" fill="#D4791E"></path>
        <path d="M162.653953,303.75 L210.019011,256.186629 L257.384069,303.75 L241.387674,319.813371 L210.019011,288.313371 L178.650348,319.813371 L162.653953,303.75 Z M178.650348,351 L210.019011,319.5 L241.387674,351 L288.440668,303.75 L210.019011,225 L131.597354,303.75 L178.650348,351 Z M257.384069,116.25 L210.019011,163.813371 L162.653953,116.25 L178.650348,100.186629 L210.019011,131.686629 L241.387674,100.186629 L257.384069,116.25 Z M241.387674,69 L210.019011,100.5 L178.650348,69 L131.597354,116.25 L210.019011,195 L288.440668,116.25 L241.387674,69 Z M255.607926,210.122047 L303.321008,162.28417 L319.516525,178.522047 L287.99896,210.122047 L319.516525,241.722047 L303.321008,257.959925 L255.607926,210.122047 Z M303.321008,131.122047 L224.527096,210.122047 L303.321008,289.122047 L350.597354,241.722047 L319.07979,210.122047 L350.597354,178.522047 L303.321008,131.122047 Z M134.396457,194.122047 L134.396457,226.122047 L180.502562,226.122047 L196.511483,210.122047 L180.502562,194.122047 L134.396457,194.122047 Z" id="Shape" fill="#FFFFFF" fill-rule="nonzero"></path>
    </g>
</svg>