<?xml version="1.0" encoding="UTF-8"?>
<svg width="420px" height="420px" viewBox="0 0 420 420" version="1.1" xmlns="http://www.w3.org/2000/svg" xmlns:xlink="http://www.w3.org/1999/xlink">
<!-- Generator: Sketch 60.1 (88133) - https://sketch.com -->
<title>Lansi</title>
<desc>Created with Sketch.</desc>
<g id="Lansi" stroke="none" stroke-width="1" fill="none" fill-rule="evenodd">
    <path d="M210,419 C94.5722857,419 1,325.427714 1,210 C1,94.5722857 94.5722857,1 210,1 C325.427714,1 419,94.5722857 419,210 C419,325.427714 325.427714,419 210,419 Z" id="Fill-17" fill="#D4791E"></path>
    <path d="M257.443402,303.75 L210.078343,256.186629 L162.713285,303.75 L178.709681,319.813371 L210.078343,288.313371 L241.447006,319.813371 L257.443402,303.75 Z M241.447006,351 L210.078343,319.5 L178.709681,351 L131.656687,303.75 L210.078343,225 L288.5,303.75 L241.447006,351 Z M162.713285,116.25 L210.078343,163.813371 L257.443402,116.25 L241.447006,100.186629 L210.078343,131.686629 L178.709681,100.186629 L162.713285,116.25 Z M178.709681,69 L210.078343,100.5 L241.447006,69 L288.5,116.25 L210.078343,195 L131.656687,116.25 L178.709681,69 Z M164.489429,210.122047 L116.776347,162.28417 L100.58083,178.522047 L132.098394,210.122047 L100.58083,241.722047 L116.776347,257.959925 L164.489429,210.122047 Z M116.776347,131.122047 L195.570258,210.122047 L116.776347,289.122047 L69.5,241.722047 L101.017565,210.122047 L69.5,178.522047 L116.776347,131.122047 Z M285.700897,194.122047 L285.700897,226.122047 L239.594793,226.122047 L223.585871,210.122047 L239.594793,194.122047 L285.700897,194.122047 Z" id="Shape" fill="#FFFFFF" fill-rule="nonzero"></path>
</g>
</svg>
